<?xml version="1.0" standalone="no"?>
<!DOCTYPE svg PUBLIC "-//W3C//DTD SVG 20010904//EN"
 "http://www.w3.org/TR/2001/REC-SVG-20010904/DTD/svg10.dtd">
<svg version="1.0" xmlns="http://www.w3.org/2000/svg"
 width="500.000000pt" height="500.000000pt" viewBox="0 0 500.000000 500.000000"
 preserveAspectRatio="xMidYMid meet">

<g transform="translate(0.000000,500.000000) scale(0.100000,-0.100000)"
fill="#000000" stroke="none">
<path d="M814 3780 c-124 -19 -232 -98 -287 -209 l-32 -66 0 -1005 0 -1005 27
-57 c58 -125 171 -203 315 -218 43 -5 818 -8 1723 -7 l1645 2 58 24 c109 43
187 121 226 226 21 55 21 67 21 1035 0 968 0 980 -21 1035 -39 105 -119 185
-226 225 l-58 21 -1670 4 c-918 2 -1693 0 -1721 -5z m3437 -96 c67 -31 124
-87 156 -152 l28 -57 0 -975 0 -975 -28 -57 c-32 -65 -89 -121 -156 -152 l-46
-21 -1705 0 -1705 0 -46 21 c-67 31 -124 87 -156 152 l-28 57 0 975 0 975 22
46 c41 89 113 151 203 175 35 10 420 12 1730 11 l1685 -2 46 -21z"/>
<path d="M3256 3457 c-53 -196 -126 -505 -126 -537 0 -34 6 -48 34 -76 32 -32
37 -34 106 -34 65 0 74 2 100 29 50 49 49 64 -19 336 -34 137 -61 253 -61 258
0 4 182 7 405 7 317 0 405 -3 405 -12 0 -7 -27 -126 -62 -264 -57 -232 -61
-253 -48 -284 19 -47 63 -70 133 -70 72 0 109 19 132 66 l18 37 -68 271 c-38
149 -72 276 -77 282 -6 8 -130 12 -437 13 l-429 0 -6 -22z m78 -277 c31 -129
56 -238 56 -242 0 -9 -234 -11 -242 -3 -2 3 23 115 56 250 33 135 63 241 67
237 3 -4 32 -113 63 -242z m854 2 c32 -133 57 -244 54 -247 -8 -8 -230 -6
-236 3 -2 4 20 106 50 227 29 121 56 231 59 244 3 13 8 22 10 19 2 -2 31 -113
63 -246z"/>
<path d="M2177 3459 c-68 -16 -123 -50 -169 -107 l-28 -33 52 -77 c81 -123 80
-122 164 -122 109 0 104 6 104 -124 0 -128 1 -126 -102 -187 l-58 -34 0 -90
c1 -75 5 -101 28 -155 l28 -65 49 -7 c58 -9 136 -2 184 18 52 22 127 90 150
137 55 114 104 463 81 584 -13 75 -53 155 -93 189 -42 35 -123 73 -166 76
l-35 3 -21 -135 c-12 -74 -25 -143 -30 -152 -20 -49 -38 -1 -61 165 -10 73
-22 127 -29 126 -5 -1 -27 -5 -48 -10z m379 -344 c17 -13 15 -13 -19 -4 -25 7
-59 7 -99 1 -53 -8 -59 -7 -43 4 26 19 135 18 161 -1z m-25 -96 c-26 -21 -84
-25 -127 -9 -26 10 -26 11 -8 25 26 20 41 18 47 -5 3 -12 14 -20 25 -20 25 0
37 16 20 26 -19 12 24 23 46 11 19 -9 19 -10 -3 -28z m-254 -215 c-3 -3 -12
-4 -19 -1 -8 3 -5 6 6 6 11 1 17 -2 13 -5z m112 -133 l34 -18 -45 -21 c-51
-25 -95 -28 -142 -8 -46 19 -51 32 -19 50 39 21 130 19 172 -3z"/>
<path d="M3668 3033 l-3 -388 -68 -3 c-64 -3 -68 -4 -65 -25 3 -22 6 -22 163
-22 157 0 160 0 163 22 3 21 -1 22 -65 25 l-68 3 -3 388 -2 387 -25 0 -25 0
-2 -387z"/>
<path d="M1950 3224 c-6 -33 -16 -72 -22 -89 -7 -16 -14 -75 -16 -131 -3 -95
-2 -103 21 -130 16 -19 34 -66 51 -132 14 -57 32 -115 40 -130 20 -37 104
-118 113 -108 4 4 -12 23 -35 43 -56 46 -66 68 -93 199 -17 83 -29 116 -50
140 -31 37 -45 118 -29 174 5 19 14 58 20 85 6 28 15 66 20 85 6 20 6 38 1 43
-5 5 -14 -16 -21 -49z"/>
<path d="M1966 3085 c-3 -9 -6 -45 -6 -80 0 -49 5 -68 20 -86 l21 -24 -3 92
c-3 89 -18 134 -32 98z"/>
<path d="M2682 2995 c0 -70 3 -99 8 -80 4 17 8 53 8 80 0 28 -4 64 -8 80 -5
19 -8 -10 -8 -80z"/>
<path d="M1170 2955 c-101 -103 -103 -106 -85 -125 10 -11 28 -20 39 -20 28 0
186 -158 186 -186 0 -12 9 -29 20 -39 19 -18 22 -16 125 85 58 57 105 109 105
115 0 18 -36 47 -54 43 -22 -4 -186 159 -179 178 6 16 -23 54 -42 54 -6 0 -58
-47 -115 -105z"/>
<path d="M2132 3048 c-28 -28 -7 -78 33 -78 27 0 45 18 45 45 0 27 -18 45 -45
45 -12 0 -26 -5 -33 -12z m68 -18 c0 -5 -4 -10 -10 -10 -5 0 -10 5 -10 10 0 6
5 10 10 10 6 0 10 -4 10 -10z"/>
<path d="M1121 2676 l-52 -53 25 -29 25 -29 56 55 56 56 -29 27 -28 27 -53
-54z"/>
<path d="M3902 2598 l-42 -43 -169 -5 -168 -5 -27 -32 c-15 -18 -25 -37 -21
-43 8 -14 353 -13 392 1 18 6 52 37 83 75 43 53 50 67 40 79 -20 25 -43 17
-88 -27z"/>
<path d="M977 2603 c-16 -15 -4 -41 39 -91 45 -51 77 -65 87 -38 6 16 -13 47
-62 99 -34 36 -51 44 -64 30z"/>
<path d="M907 2533 c-17 -16 -4 -45 41 -94 35 -37 53 -51 65 -46 28 11 19 40
-29 95 -43 49 -62 60 -77 45z"/>
<path d="M826 2454 c-11 -29 91 -141 118 -131 25 10 19 28 -29 90 -46 57 -77
72 -89 41z"/>
<path d="M1068 2357 c-55 -39 -87 -69 -88 -80 0 -14 92 -169 116 -196 2 -2 46
32 99 75 53 44 103 84 112 91 13 10 6 23 -53 92 -38 45 -76 81 -84 80 -8 0
-54 -28 -102 -62z"/>
<path d="M3389 2383 c-57 -61 -99 -113 -99 -122 0 -8 174 -154 207 -174 7 -4
34 28 72 88 34 52 61 99 61 104 0 10 -183 141 -197 141 -5 0 -25 -17 -44 -37z"/>
<path d="M1761 2356 c-9 -11 12 -55 100 -212 62 -110 123 -216 136 -236 l23
-38 284 0 284 0 128 227 c70 124 128 236 128 247 1 21 1 21 -535 24 -449 2
-538 0 -548 -12z m610 -115 c75 -75 -4 -201 -100 -161 -47 19 -66 47 -66 97 0
37 5 49 28 69 41 35 99 33 138 -5z"/>
<path d="M752 2307 c-53 -54 -61 -74 -40 -95 22 -22 43 -13 96 41 l52 52 -26
28 c-13 15 -26 27 -27 27 -2 0 -26 -24 -55 -53z"/>
<path d="M1624 2227 c-21 -19 -115 -96 -209 -172 -93 -75 -174 -144 -179 -152
-11 -20 52 -110 98 -141 79 -54 190 -63 269 -23 62 31 287 202 287 217 0 22
-199 304 -214 304 -7 0 -30 -15 -52 -33z"/>
<path d="M2817 2120 c-106 -152 -110 -160 -99 -176 11 -17 242 -183 287 -207
29 -15 59 -21 110 -21 61 0 78 4 125 30 56 32 130 114 130 146 0 17 -423 368
-444 368 -7 0 -56 -63 -109 -140z"/>
<path d="M1923 1741 c-39 -27 -73 -56 -76 -64 -6 -15 82 -174 104 -188 8 -5
167 -9 355 -9 390 0 344 -12 413 108 26 44 40 79 36 90 -8 23 -143 115 -159
109 -8 -3 -33 -39 -57 -81 l-44 -76 -194 2 -195 3 -45 78 c-25 42 -50 77 -56
77 -7 0 -43 -22 -82 -49z"/>
<path d="M1217 1592 c-10 -10 -14 -22 -10 -25 3 -4 107 -7 230 -7 176 0 223 3
223 13 0 33 -23 37 -225 37 -183 0 -203 -2 -218 -18z"/>
<path d="M1206 1515 c12 -30 44 -35 223 -35 179 0 224 7 235 36 4 12 -35 14
-229 14 -206 0 -234 -2 -229 -15z"/>
</g>
</svg>
