<?xml version="1.0" standalone="no"?>
<!DOCTYPE svg PUBLIC "-//W3C//DTD SVG 20010904//EN"
 "http://www.w3.org/TR/2001/REC-SVG-20010904/DTD/svg10.dtd">
<svg version="1.0" xmlns="http://www.w3.org/2000/svg"
 width="451.000000pt" height="451.000000pt" viewBox="0 0 451.000000 451.000000"
 preserveAspectRatio="xMidYMid meet">

<g transform="translate(0.000000,451.000000) scale(0.100000,-0.100000)"
fill="#000000" stroke="none">
<path d="M2045 4139 c-4 -6 -1 -54 5 -108 7 -54 11 -110 8 -124 -4 -21 0 -27
19 -31 23 -6 33 -26 12 -26 -7 0 -23 -12 -36 -26 -17 -19 -21 -30 -14 -37 16
-16 13 -27 -7 -27 -18 0 -51 -30 -67 -60 -4 -8 7 0 25 18 24 25 38 32 54 28
28 -7 61 16 81 54 17 34 22 76 5 50 -8 -12 -10 -10 -11 10 -1 14 -1 28 0 33 0
4 -9 7 -20 7 -21 0 -22 3 -16 83 3 47 2 69 -3 52 -4 -16 -9 -28 -10 -25 -6 16
-10 51 -12 93 -2 50 -3 53 -13 36z"/>
<path d="M963 4007 c-23 -25 -48 -58 -54 -73 -6 -16 -19 -44 -28 -61 -15 -31
-14 -34 4 -53 11 -10 45 -33 75 -49 54 -30 64 -44 12 -17 -15 7 -38 17 -52 21
-22 6 -21 3 13 -29 21 -20 42 -34 47 -31 17 10 11 -41 -10 -97 -12 -33 -44
-80 -85 -126 -35 -40 -70 -82 -76 -94 -6 -12 -40 -107 -74 -212 -35 -105 -79
-225 -98 -267 -30 -67 -36 -94 -52 -239 -11 -107 -23 -172 -33 -188 l-15 -24
-14 26 c-8 15 -12 30 -10 34 9 15 -49 117 -68 120 -18 2 -19 2 -2 -8 19 -12
24 -50 6 -50 -6 0 -4 -7 5 -15 8 -8 28 -39 45 -68 24 -43 29 -61 24 -90 -10
-66 60 -176 106 -164 28 7 46 -16 26 -33 -8 -7 -12 -16 -9 -21 3 -5 -1 -6 -9
-3 -16 6 -44 -23 -33 -34 4 -3 25 3 46 16 l39 22 29 -38 c16 -20 45 -62 66
-92 20 -30 61 -86 91 -125 30 -38 55 -80 55 -92 0 -12 3 -23 8 -25 19 -8 312
-424 312 -443 0 -22 -28 -32 -103 -38 l-68 -5 -29 40 c-43 59 -53 101 -47 190
6 84 -6 107 -17 32 -12 -92 -7 -167 14 -199 11 -16 20 -32 20 -35 0 -8 -113 4
-127 13 -23 14 -16 179 12 297 32 134 31 168 -1 65 -39 -123 -54 -218 -48
-284 l7 -58 -62 -76 c-34 -42 -67 -79 -73 -83 -25 -16 -58 -110 -58 -167 0
-79 19 -115 103 -193 113 -104 248 -159 422 -171 187 -12 349 65 451 213 39
56 39 57 39 153 0 104 -15 147 -61 172 -13 6 -27 24 -33 39 -26 76 -120 141
-253 176 -51 14 -68 23 -68 36 0 9 5 20 10 23 6 4 24 33 40 65 16 32 65 102
108 156 44 55 96 130 117 169 l37 70 -6 115 c-7 118 -28 309 -47 415 -14 75
-16 87 -24 155 -3 30 -15 75 -26 99 -10 24 -19 55 -19 68 0 14 -6 37 -14 51
-19 37 -49 213 -40 237 4 11 20 37 36 59 34 47 44 96 28 127 -7 13 -40 53 -73
88 -59 61 -60 64 -41 78 21 16 140 12 251 -8 104 -20 166 7 275 117 37 37 66
69 64 72 -2 2 -13 -5 -24 -16 -13 -13 -28 -19 -41 -15 -13 3 -21 1 -21 -7 0
-7 7 -10 18 -6 26 9 -95 -100 -131 -117 -19 -10 -34 -12 -38 -6 -7 11 -71 9
-80 -3 -3 -5 -26 -4 -50 1 -24 6 -60 11 -79 11 -24 0 -31 3 -21 9 18 12 -40
26 -96 23 -38 -3 -42 -1 -48 27 -3 16 -15 37 -26 47 -10 9 -19 23 -19 29 0 7
-7 15 -15 19 -20 7 -19 36 1 64 9 13 18 50 21 83 5 53 4 62 -16 75 -11 8 -21
21 -21 29 0 33 -35 82 -78 109 -37 23 -61 30 -112 33 l-65 4 -42 -44z m193 -2
c48 -23 75 -43 80 -58 16 -45 -6 -88 -33 -65 -7 6 -24 8 -38 6 -13 -3 -22 -1
-19 3 3 5 -1 10 -8 10 -7 1 -23 3 -36 4 -13 1 -21 -2 -19 -9 2 -6 11 -11 20
-11 8 0 19 -4 24 -9 4 -5 -8 -6 -29 -2 -33 6 -41 3 -70 -24 -26 -25 -38 -30
-62 -26 -15 3 -34 6 -41 6 -7 0 -15 7 -19 15 -7 19 14 66 26 59 5 -3 4 -12 -3
-20 -15 -19 -4 -44 19 -44 21 0 46 23 36 33 -3 3 -12 3 -20 0 -23 -9 -16 12 9
22 33 15 29 41 -7 37 -21 -3 -26 -1 -20 10 6 10 4 10 -9 -1 -9 -7 -17 -9 -17
-3 0 5 16 19 35 31 19 11 40 32 45 46 14 37 65 33 156 -10z m62 -145 c32 -1
-31 -29 -78 -35 -25 -3 -61 -8 -80 -11 -35 -6 -35 -6 -16 15 13 15 30 20 56
19 20 0 45 4 56 10 10 6 25 9 32 7 8 -3 21 -5 30 -5z m60 -22 c-4 -11 -84 -40
-152 -53 -15 -3 -26 -8 -23 -11 7 -8 126 17 133 27 3 5 14 9 25 9 14 0 18 -5
15 -22 -3 -13 -5 -26 -5 -30 -1 -5 -8 -8 -17 -8 -8 0 -13 -4 -10 -8 2 -4 -11
-6 -30 -4 -21 3 -34 0 -34 -7 0 -6 -17 -11 -40 -11 -43 0 -55 17 -17 24 101
20 138 28 134 33 -3 2 -22 0 -43 -5 -72 -18 -157 -25 -149 -12 5 9 0 11 -21 6
-16 -3 -42 0 -57 7 -27 11 -25 12 34 15 72 3 179 26 217 47 33 18 45 19 40 3z
m-215 -105 c-7 -2 -21 -2 -30 0 -10 3 -4 5 12 5 17 0 24 -2 18 -5z m187 -34
c0 -4 -7 -23 -15 -43 -14 -32 -18 -36 -43 -30 -15 3 -54 19 -86 35 -69 34 -66
33 -66 16 0 -13 100 -64 159 -82 22 -7 23 -10 19 -79 -6 -86 -18 -112 -97
-197 -67 -73 -119 -104 -158 -94 -28 7 -93 -11 -93 -26 0 -12 17 -12 25 1 3 6
16 10 28 9 14 0 16 -2 7 -6 -49 -16 -65 -33 -105 -114 -24 -47 -51 -115 -60
-150 -9 -35 -40 -131 -67 -214 -61 -179 -68 -248 -30 -305 13 -19 21 -26 17
-15 -29 77 -29 91 -3 206 42 187 153 478 207 542 14 16 17 12 46 -51 40 -85
59 -200 45 -273 -6 -28 -22 -79 -37 -113 -25 -54 -28 -72 -27 -166 0 -72 6
-124 19 -165 11 -36 17 -84 16 -120 -5 -132 -4 -193 4 -249 11 -81 -4 -73 -80
40 -75 112 -105 151 -105 133 0 -10 -4 -9 -17 4 -16 15 -15 18 15 47 36 34 31
39 -13 10 -33 -22 -50 -26 -40 -10 9 15 77 41 91 36 7 -3 20 4 30 15 24 27 2
25 -66 -7 -37 -17 -56 -21 -59 -13 -2 8 -5 8 -11 -1 -11 -17 -40 -5 -40 16 0
11 6 15 18 12 15 -4 19 2 20 33 2 20 -2 40 -8 44 -6 3 -10 -3 -10 -16 0 -12
-13 -36 -29 -54 l-29 -33 -21 22 c-12 11 -32 38 -45 58 -24 36 -24 37 -6 70
38 68 42 87 56 242 14 169 19 192 64 285 16 32 36 86 44 119 26 99 96 294 121
337 13 22 46 65 73 96 66 72 92 121 92 168 l0 38 125 -1 c69 -1 125 -4 125 -7z
m65 -174 c10 -53 18 -67 81 -151 66 -87 69 -115 19 -194 -41 -63 -44 -99 -19
-203 l17 -68 -28 -29 c-64 -67 -191 -101 -300 -81 -81 15 -92 28 -60 71 16 22
25 47 25 70 0 43 -18 100 -31 100 -6 0 -5 -8 1 -19 12 -23 12 -98 0 -126 -10
-24 -9 -28 -19 67 -7 61 -15 86 -40 124 -17 26 -31 55 -31 64 0 10 19 24 53
38 28 12 66 35 84 50 18 15 50 42 72 60 23 18 53 54 68 80 25 41 28 58 29 134
0 48 3 90 6 94 4 3 10 -25 14 -63 8 -75 -7 -169 -33 -212 -27 -43 -76 -91 -86
-84 -6 3 -7 1 -3 -5 3 -5 0 -12 -6 -15 -7 -2 -10 -7 -7 -11 10 -11 95 62 127
109 17 26 33 66 37 93 5 43 -4 137 -20 202 -5 18 0 14 18 -15 14 -22 28 -58
32 -80z m124 -9 c-12 -10 -99 -16 -99 -7 0 7 22 11 52 11 28 0 49 -2 47 -4z
m251 -36 c-8 -5 -24 -9 -35 -9 -16 1 -16 2 5 9 35 11 48 11 30 0z m-250 -632
c1 -18 8 -51 16 -73 35 -91 44 -137 54 -290 5 -88 15 -187 20 -220 6 -33 11
-114 11 -180 1 -114 0 -124 -29 -188 -21 -44 -58 -97 -111 -156 -44 -50 -94
-118 -111 -152 l-32 -62 -76 113 c-42 62 -83 120 -89 129 -10 14 -9 27 7 69
21 54 25 106 14 186 -11 75 -23 52 -17 -32 4 -59 1 -92 -12 -131 -19 -59 -28
-58 -73 14 -21 32 -27 54 -28 110 -1 39 -7 83 -13 98 -7 19 -9 67 -5 135 5 80
2 126 -10 184 -25 119 -20 228 13 316 15 40 30 70 33 67 4 -4 37 -11 75 -15
110 -14 269 29 328 89 28 28 35 26 35 -11z m-950 -288 c12 -16 19 -30 16 -30
-2 0 -14 14 -26 30 -12 17 -19 30 -16 30 2 0 14 -13 26 -30z m286 -417 c15
-18 30 -31 34 -28 5 3 12 0 16 -6 5 -8 3 -9 -6 -4 -8 5 -11 3 -8 -6 3 -8 10
-14 15 -14 6 0 15 -4 20 -9 5 -5 3 -6 -4 -2 -20 11 -15 -9 7 -29 11 -10 20
-26 20 -36 0 -10 5 -21 10 -24 6 -3 10 -1 10 6 0 6 13 -5 29 -25 17 -21 27
-44 24 -52 -6 -17 -19 -10 -35 19 -10 20 -10 21 5 8 10 -7 17 -9 17 -3 0 5 -7
15 -15 22 -8 7 -15 9 -15 4 0 -4 -12 3 -26 17 -32 29 -154 207 -154 223 0 6 7
2 16 -9 8 -11 26 -35 40 -52z m198 -283 c9 -17 21 -28 26 -25 4 3 32 -25 61
-62 72 -93 72 -93 66 -93 -4 0 -25 25 -48 55 -66 87 -58 56 9 -37 67 -92 168
-261 127 -213 -14 17 -25 34 -25 38 0 5 -20 35 -44 67 -24 32 -49 67 -55 78
-6 12 -42 66 -81 121 -38 56 -66 101 -62 101 4 0 16 -14 26 -30z m226 -290 c6
-11 8 -20 6 -20 -3 0 -10 9 -16 20 -6 11 -8 20 -6 20 3 0 10 -9 16 -20z m-88
-258 c36 4 51 1 55 -8 3 -8 34 -36 69 -64 35 -28 64 -55 64 -62 0 -6 -7 -5
-18 5 -15 13 -26 15 -61 8 -2 -1 3 -9 10 -18 12 -16 11 -16 -8 0 -16 14 -22
15 -25 5 -5 -15 -38 4 -114 69 -54 46 -82 93 -42 72 12 -6 43 -9 70 -7z m158
3 c10 -12 10 -15 -1 -15 -11 0 -11 -2 1 -10 9 -6 10 -10 3 -10 -6 0 -15 5 -18
10 -9 15 -27 12 -19 -2 4 -7 -2 -4 -14 6 -12 11 -22 23 -22 28 0 14 57 9 70
-7z m0 -135 c0 -5 -4 -10 -10 -10 -5 0 -10 5 -10 10 0 6 5 10 10 10 6 0 10 -4
10 -10z"/>
<path d="M1016 4022 c-10 -17 1 -32 24 -32 13 0 17 5 14 15 -4 8 -10 13 -14
10 -5 -3 -10 0 -12 7 -3 9 -6 9 -12 0z"/>
<path d="M1018 3773 c7 -3 16 -2 19 1 4 3 -2 6 -13 5 -11 0 -14 -3 -6 -6z"/>
<path d="M1021 3619 c-2 -45 70 -129 110 -129 28 0 23 13 -14 30 -17 8 -41 29
-52 46 -11 18 -25 40 -32 50 -10 16 -12 16 -12 3z"/>
<path d="M712 2825 c-17 -37 -14 -45 4 -12 9 16 14 31 11 33 -2 2 -9 -7 -15
-21z"/>
<path d="M555 2380 c3 -5 8 -10 11 -10 2 0 4 5 4 10 0 6 -5 10 -11 10 -5 0 -7
-4 -4 -10z"/>
<path d="M580 2362 c0 -14 28 -47 35 -41 2 3 -5 15 -15 29 -11 14 -20 19 -20
12z"/>
<path d="M1315 3393 c-10 -57 -40 -107 -95 -162 -59 -59 -48 -68 18 -14 28 23
53 56 67 87 26 59 40 126 27 126 -6 0 -13 -17 -17 -37z"/>
<path d="M1010 3144 c0 -17 39 -73 57 -82 40 -22 93 -25 138 -7 25 9 45 23 45
31 0 12 -4 12 -30 -1 -58 -30 -148 -11 -189 41 -12 15 -21 23 -21 18z"/>
<path d="M1076 2963 c-17 -95 -18 -115 -7 -126 16 -16 18 -10 25 81 7 83 -6
115 -18 45z"/>
<path d="M1409 2765 c-2 -18 -2 -21 -13 -59 -9 -37 -56 -99 -110 -148 -31 -29
-36 -38 -23 -38 24 0 118 96 140 142 22 46 33 118 18 118 -6 0 -12 -7 -12 -15z"/>
<path d="M1010 2700 c0 -5 13 -16 29 -24 41 -22 89 -80 100 -123 5 -21 13 -67
16 -103 4 -38 23 -105 46 -162 34 -83 39 -106 39 -175 0 -69 -9 -128 -26 -185
-3 -11 0 -18 8 -18 23 0 48 111 48 213 0 85 -3 101 -36 176 -19 45 -39 107
-44 138 -15 88 -37 155 -65 192 -14 19 -25 31 -25 27 0 -4 -16 6 -35 23 -36
32 -55 39 -55 21z"/>
<path d="M1412 2631 c-7 -22 -31 -57 -57 -82 -45 -43 -54 -59 -35 -59 27 0
120 126 120 162 0 31 -16 19 -28 -21z"/>
<path d="M1381 2456 c-22 -88 -25 -207 -7 -271 22 -73 16 -104 -34 -203 -46
-89 -69 -173 -63 -219 8 -50 20 -39 25 21 3 41 19 82 61 165 65 126 71 166 37
251 -27 69 -25 204 5 283 4 9 3 17 -3 17 -5 0 -15 -20 -21 -44z"/>
<path d="M1010 1812 c6 -13 14 -21 18 -18 3 4 -2 14 -12 24 -18 16 -18 16 -6
-6z"/>
<path d="M2014 3859 c-10 -12 -74 -66 -140 -119 -143 -114 -175 -126 -313
-117 -47 4 -97 9 -111 12 -14 2 -5 -2 20 -11 25 -9 77 -18 115 -21 105 -8 151
15 370 178 28 21 58 51 68 68 21 36 18 40 -9 10z"/>
<path d="M2960 3736 c-14 -7 -81 -46 -150 -86 -69 -41 -167 -92 -219 -115
-112 -49 -125 -63 -91 -100 18 -19 25 -40 28 -83 4 -54 2 -58 -22 -71 -14 -8
-26 -18 -26 -22 0 -10 60 -59 87 -72 33 -15 29 -24 -27 -52 -52 -26 -61 -43
-34 -66 19 -16 36 -57 29 -70 -4 -5 -24 0 -45 11 -54 28 -77 25 -135 -14 -94
-63 -371 -206 -400 -206 -2 0 3 16 11 36 12 28 13 43 4 68 -9 28 -17 34 -73
49 -58 15 -68 15 -118 1 -49 -14 -57 -20 -72 -55 -15 -34 -15 -44 -5 -66 24
-49 63 -68 137 -68 l67 0 27 -41 c34 -52 37 -122 7 -149 -11 -10 -20 -24 -20
-31 0 -16 66 -66 125 -96 22 -11 72 -41 112 -66 l72 -45 -22 -28 c-12 -15 -32
-30 -45 -33 -13 -4 -76 -34 -139 -68 -87 -46 -120 -69 -135 -95 -18 -29 -25
-33 -61 -33 -57 0 -103 -30 -115 -74 -6 -19 -8 -82 -5 -140 6 -103 5 -107 -22
-146 -23 -34 -27 -46 -21 -81 16 -99 78 -158 214 -204 155 -52 288 -54 414 -4
53 21 129 71 162 108 11 12 23 21 27 21 4 0 48 -38 98 -85 79 -76 93 -94 116
-156 21 -53 45 -90 103 -156 98 -110 143 -146 182 -146 53 0 120 82 120 147 0
66 -155 227 -256 265 -27 10 -97 61 -170 122 l-124 104 6 51 c7 66 -8 102 -49
119 -37 15 -62 40 -72 73 -3 12 -18 36 -32 52 l-25 30 27 22 c26 20 27 25 23
87 -3 37 -13 81 -22 100 -10 18 -16 34 -14 36 2 2 65 -30 140 -72 165 -90 193
-96 263 -53 28 17 133 81 235 143 151 91 188 118 199 145 13 29 18 32 47 26
35 -6 62 5 164 71 36 24 131 81 212 129 173 102 176 106 158 232 -11 82 -22
101 -77 135 -18 11 -33 24 -33 29 0 4 22 24 49 44 59 42 67 68 52 171 -10 62
-15 74 -50 105 -21 19 -83 57 -137 85 -92 46 -336 188 -514 299 -79 49 -100
54 -140 32z m-232 -451 c72 -40 313 -184 326 -194 25 -20 186 -101 199 -101
11 0 17 -15 22 -54 12 -90 11 -91 -80 -48 -44 20 -106 53 -139 72 -32 19 -75
44 -95 56 -21 11 -73 45 -117 75 -43 30 -101 67 -129 83 -27 16 -78 47 -112
69 l-62 40 0 53 0 54 67 -38 c37 -21 91 -51 120 -67z m1022 -63 c0 -4 -6 -14
-12 -21 -11 -10 -10 -11 5 -6 14 6 17 1 17 -29 0 -49 -19 -65 -152 -132 -62
-31 -133 -71 -158 -88 -49 -35 -133 -86 -142 -86 -3 0 -9 21 -12 48 -4 26 -9
54 -12 62 -3 14 50 52 78 56 4 1 13 2 19 3 5 0 7 5 4 11 -3 5 0 7 8 4 8 -3 18
0 23 7 4 8 3 10 -4 5 -7 -4 -12 -5 -12 -3 0 10 107 71 211 121 114 54 139 63
139 48z m-1065 -279 c237 -136 296 -171 345 -203 30 -21 98 -59 150 -85 52
-27 96 -49 97 -50 6 -4 15 -125 10 -125 -3 0 -18 5 -32 12 -20 9 -25 18 -25
46 0 45 -46 90 -141 137 -37 19 -79 46 -92 59 -23 23 -107 72 -107 62 0 -3 25
-19 55 -36 55 -31 72 -46 37 -32 -39 15 -192 106 -187 111 3 2 23 -6 45 -18
48 -27 54 -21 7 7 -19 11 -47 27 -63 37 -22 13 -25 13 -10 1 35 -29 4 -17 -68
26 -39 23 -89 52 -111 63 -26 14 -41 30 -43 45 l-4 23 34 -20 c18 -11 65 -38
103 -60z m-771 -64 c34 -26 33 -35 -5 -55 -53 -27 -147 -17 -171 20 -10 15 0
26 36 42 47 20 109 18 140 -7z m1847 -43 c13 -28 5 -89 -14 -104 -6 -6 -70
-40 -142 -77 -71 -37 -145 -79 -165 -94 -19 -15 -56 -39 -81 -54 l-46 -26 -7
46 c-4 29 -2 51 6 60 9 11 8 13 -2 11 -7 -2 -14 2 -16 7 -2 6 19 23 47 38 28
15 48 22 44 15 -4 -7 3 -2 15 12 12 14 19 19 15 13 -4 -9 -1 -11 9 -7 9 3 14
10 11 14 -6 10 114 82 185 112 30 12 69 30 85 40 39 23 43 23 56 -6z m-1999
-32 c39 -20 109 -20 149 0 44 22 48 13 6 -13 -61 -38 -170 -22 -197 28 -13 25
-13 41 1 18 5 -9 24 -24 41 -33z m295 -178 c205 -114 349 -199 418 -246 22
-15 81 -47 130 -71 50 -24 92 -45 94 -46 1 -1 6 -29 10 -62 6 -48 4 -61 -6
-61 -18 0 -195 87 -256 125 -26 17 -91 59 -145 94 -53 36 -128 82 -167 104
-38 22 -91 55 -116 73 -43 31 -45 35 -46 83 0 28 1 51 3 51 2 0 39 -20 81 -44z
m1123 -124 c0 -4 -6 -14 -12 -21 -11 -10 -10 -11 5 -6 14 6 17 1 17 -29 0 -49
-19 -65 -152 -132 -62 -31 -133 -71 -158 -88 -59 -42 -140 -89 -145 -85 -2 2
-6 34 -9 70 l-6 67 33 13 c17 8 35 14 39 14 3 0 17 9 30 20 41 36 80 59 203
122 114 58 155 73 155 55z"/>
<path d="M2600 3296 c0 -2 8 -10 18 -17 15 -13 16 -12 3 4 -13 16 -21 21 -21
13z"/>
<path d="M2763 3235 c0 -8 4 -12 9 -9 5 3 23 -5 41 -19 18 -13 48 -32 67 -41
19 -9 27 -11 16 -4 -57 38 -112 75 -122 81 -6 3 -11 0 -11 -8z"/>
<path d="M2704 3231 c7 -11 46 -35 46 -28 0 3 -12 12 -26 22 -15 9 -23 12 -20
6z"/>
<path d="M2920 3146 c0 -5 69 -46 78 -46 4 0 -10 11 -30 25 -36 24 -48 30 -48
21z"/>
<path d="M3120 2976 c0 -2 7 -7 16 -10 8 -3 12 -2 9 4 -6 10 -25 14 -25 6z"/>
<path d="M3174 2946 c11 -9 27 -16 35 -15 14 0 14 1 1 6 -8 3 -24 10 -35 15
-20 9 -20 9 -1 -6z"/>
<path d="M3674 3164 c-18 -14 -18 -15 4 -4 12 6 22 13 22 15 0 8 -5 6 -26 -11z"/>
<path d="M3605 3125 c-22 -14 -36 -25 -31 -25 10 0 76 40 76 46 0 6 -2 5 -45
-21z"/>
<path d="M3394 3014 c-18 -14 -18 -14 6 -3 31 14 36 19 24 19 -6 0 -19 -7 -30
-16z"/>
<path d="M3394 2944 c-18 -14 -18 -15 4 -4 12 6 22 13 22 15 0 8 -5 6 -26 -11z"/>
<path d="M3735 2820 c-3 -6 1 -7 9 -4 18 7 21 14 7 14 -6 0 -13 -4 -16 -10z"/>
<path d="M3654 2774 c-18 -14 -18 -15 4 -4 12 6 22 13 22 15 0 8 -5 6 -26 -11z"/>
<path d="M3604 2744 c-18 -14 -18 -15 4 -4 12 6 22 13 22 15 0 8 -5 6 -26 -11z"/>
<path d="M2054 2561 c7 -11 46 -35 46 -28 0 3 -12 12 -26 22 -15 9 -23 12 -20
6z"/>
<path d="M2135 2515 c11 -9 29 -21 40 -26 l20 -10 -20 16 c-11 9 -29 21 -40
26 l-20 10 20 -16z"/>
<path d="M2252 2485 c37 -25 71 -45 75 -45 4 0 -22 20 -59 45 -37 25 -71 45
-75 45 -4 0 22 -20 59 -45z"/>
<path d="M2360 2426 c0 -7 71 -49 75 -44 3 2 -13 15 -35 27 -22 12 -40 20 -40
17z"/>
<path d="M2627 2219 c7 -7 15 -10 18 -7 3 3 -2 9 -12 12 -14 6 -15 5 -6 -5z"/>
<path d="M3124 2454 c-18 -14 -18 -15 4 -4 12 6 22 13 22 15 0 8 -5 6 -26 -11z"/>
<path d="M3028 2404 c-38 -20 -36 -28 2 -9 17 9 30 18 30 20 0 7 -1 6 -32 -11z"/>
<path d="M2940 2380 c-9 -6 -10 -10 -3 -10 6 0 15 5 18 10 8 12 4 12 -15 0z"/>
<path d="M2060 3627 c0 -63 -1 -67 -29 -82 -30 -15 -120 -117 -156 -177 -11
-18 -35 -42 -52 -53 -36 -23 -42 -35 -15 -35 10 0 23 -5 30 -12 9 -9 12 -7 12
9 0 12 9 28 20 36 11 8 22 23 25 35 13 69 90 163 156 192 62 26 71 22 21 -9
-20 -13 -57 -48 -82 -78 -25 -31 -56 -66 -70 -79 -14 -13 -20 -24 -14 -24 6 0
39 32 74 71 97 109 121 122 235 123 89 1 96 3 122 28 15 15 25 30 22 32 -3 3
-27 -1 -53 -9 -30 -9 -81 -14 -135 -12 l-86 2 -7 48 c-10 72 -18 69 -18 -6z
m243 -54 c-7 -2 -19 -2 -25 0 -7 3 -2 5 12 5 14 0 19 -2 13 -5z m-150 -10 c-7
-2 -19 -2 -25 0 -7 3 -2 5 12 5 14 0 19 -2 13 -5z"/>
<path d="M1855 3228 c4 -13 11 -27 16 -33 5 -5 4 5 -2 23 -12 36 -24 44 -14
10z"/>
<path d="M2247 3194 c-16 -9 -34 -13 -41 -11 -8 3 -18 -9 -25 -30 -12 -31 -11
-38 6 -62 29 -39 80 -61 145 -61 51 0 60 4 92 34 39 36 42 52 24 102 -8 24
-19 34 -41 38 -53 11 -131 6 -160 -10z m96 -21 c-7 -2 -19 -2 -25 0 -7 3 -2 5
12 5 14 0 19 -2 13 -5z m-133 -48 c0 -66 154 -83 210 -23 12 13 20 17 20 9 0
-7 -14 -26 -31 -42 -25 -23 -40 -29 -75 -29 -55 0 -106 21 -128 51 -18 26 -21
59 -6 59 6 0 10 -11 10 -25z m197 14 c9 -9 6 -16 -11 -30 -34 -27 -87 -33
-129 -15 -68 28 -37 55 64 56 36 0 70 -5 76 -11z"/>
<path d="M1751 3034 c-12 -42 -20 -78 -18 -80 2 -2 14 30 26 72 12 42 20 78
18 80 -2 2 -14 -30 -26 -72z"/>
<path d="M1901 3105 c0 -5 8 -37 19 -70 11 -33 17 -44 13 -25 -6 38 -31 111
-32 95z"/>
<path d="M1941 2954 c0 -11 3 -14 6 -6 3 7 2 16 -1 19 -3 4 -6 -2 -5 -13z"/>
<path d="M3452 2378 c-22 -14 -30 -23 -22 -28 8 -5 7 -9 -5 -13 -9 -4 -13 -3
-10 3 10 16 -3 12 -72 -25 -36 -19 -74 -35 -84 -35 -35 0 -98 -32 -105 -53 -3
-11 -7 -62 -8 -113 -1 -99 -18 -144 -31 -84 -14 63 -109 89 -206 55 -64 -22
-69 -34 -69 -150 l0 -101 -31 -18 c-17 -10 -28 -20 -25 -23 3 -3 12 0 21 7 9
7 18 10 21 7 3 -3 -8 -13 -25 -21 -21 -12 -28 -21 -24 -33 4 -10 -1 -21 -13
-30 -18 -14 -18 -15 6 -33 14 -11 30 -20 35 -20 11 0 64 -39 54 -40 -12 0 -64
25 -105 52 -22 14 -48 27 -59 29 -33 7 -26 25 16 42 24 9 40 19 37 23 -9 8
-108 -45 -115 -62 -3 -8 2 -23 12 -34 30 -33 295 -181 314 -175 9 3 52 27 96
55 78 49 79 50 99 31 59 -56 174 -55 234 1 19 19 22 32 22 99 0 85 1 87 74
114 49 19 74 50 63 79 -4 9 -32 28 -64 44 -58 27 -58 28 -61 75 -2 26 0 47 4
47 5 0 24 -10 43 -23 182 -119 297 -187 318 -187 10 0 32 9 48 20 17 12 75 45
131 75 109 59 138 83 132 111 -2 12 -46 41 -119 79 -64 33 -128 68 -142 78
-14 9 -70 42 -124 73 -54 31 -119 72 -144 90 -53 39 -71 41 -117 12z m93 -18
c18 -20 17 -20 -9 -20 -15 0 -37 5 -48 11 -17 9 -18 13 -7 20 23 14 45 10 64
-11z m155 -106 c0 -3 -13 4 -30 16 -16 12 -30 24 -30 26 0 3 14 -4 30 -16 17
-12 30 -24 30 -26z m-355 -11 c19 -9 35 -20 35 -25 0 -17 -66 -48 -102 -48
-21 0 -38 -4 -38 -10 0 -5 -4 -10 -10 -10 -5 0 -9 4 -7 9 1 5 -7 16 -18 25
-27 20 -11 46 41 62 54 16 58 16 99 -3z m36 -56 l-20 -21 17 36 c10 21 18 29
20 20 2 -8 -5 -24 -17 -35z m384 36 c19 -9 35 -20 35 -24 0 -4 -19 -14 -42
-24 -24 -9 -82 -39 -130 -66 l-88 -49 -35 17 c-19 9 -34 22 -32 27 3 10 234
135 249 136 4 0 23 -8 43 -17z m80 -51 c-3 -3 -11 0 -18 7 -9 10 -8 11 6 5 10
-3 15 -9 12 -12z m-451 -6 c-7 -18 -58 -40 -76 -33 -7 3 -3 6 8 6 12 1 32 10
45 21 29 23 30 24 23 6z m-54 -6 c-8 -5 -22 -9 -30 -9 -10 0 -8 3 5 9 27 12
43 12 25 0z m677 -120 c-29 -15 -71 -36 -94 -48 -58 -30 -54 -21 7 18 53 34
60 44 34 54 -10 4 -14 14 -11 26 4 15 -5 24 -40 42 -24 12 -47 26 -50 30 -2 5
43 -15 100 -44 l106 -52 -52 -26z m-787 97 c13 -5 13 -6 -1 -6 -8 -1 -24 6
-35 15 -19 15 -19 15 1 6 11 -5 27 -12 35 -15z m63 -14 c-7 -2 -19 -2 -25 0
-7 3 -2 5 12 5 14 0 19 -2 13 -5z m63 -18 c-11 -8 -27 -15 -35 -15 -9 1 -2 7
14 15 39 18 44 18 21 0z m34 -10 c-7 -8 -17 -15 -23 -15 -5 0 -2 9 8 20 21 23
35 19 15 -5z m-143 -11 c-5 -5 -57 13 -57 20 0 3 14 0 31 -6 16 -6 28 -12 26
-14z m283 -56 c0 -23 -5 -23 -46 3 -34 20 -40 30 -28 42 12 11 74 -26 74 -45z
m-485 30 c56 -25 3 -69 -85 -70 -83 0 -108 38 -42 65 45 19 92 21 127 5z m253
5 c-10 -2 -28 -2 -40 0 -13 2 -5 4 17 4 22 1 32 -1 23 -4z m55 -24 c-7 -7 -40
-15 -75 -19 l-63 -7 60 -2 c45 -1 69 4 95 20 l35 21 -23 -24 c-20 -20 -32 -23
-102 -23 -59 0 -83 4 -95 16 -15 14 -10 15 47 12 35 -2 77 1 93 6 41 13 41 13
28 0z m285 -19 c71 -41 66 -47 -8 -10 -55 28 -71 40 -52 40 4 0 31 -14 60 -30z
m-771 -2 c-3 -8 -6 -5 -6 6 -1 11 2 17 5 13 3 -3 4 -12 1 -19z m223 -2 c0 -2
-8 -10 -17 -17 -16 -13 -17 -12 -4 4 13 16 21 21 21 13z m495 -15 c-3 -5 3
-12 14 -16 11 -3 25 -13 33 -22 12 -15 11 -15 -12 -3 -37 19 -50 31 -44 41 3
5 7 9 10 9 3 0 3 -4 -1 -9z m-540 -21 c-3 -5 -14 -10 -23 -9 -14 0 -13 2 3 9
27 11 27 11 20 0z m26 -10 c-13 -11 -28 -20 -35 -20 -6 0 3 9 19 19 39 25 46
25 16 1z m308 -4 c-15 -13 -46 -26 -68 -30 -42 -6 -115 7 -125 23 -3 5 13 2
36 -6 49 -17 119 -9 151 18 32 27 37 23 6 -5z m-39 4 c-8 -5 -22 -9 -30 -9
-10 0 -8 3 5 9 27 12 43 12 25 0z m-87 -7 c-7 -2 -19 -2 -25 0 -7 3 -2 5 12 5
14 0 19 -2 13 -5z m-234 -19 c9 -8 -85 -2 -104 6 -12 5 4 6 40 3 33 -3 62 -7
64 -9z m786 -3 c0 -23 -20 -23 -46 -1 l-24 20 35 -2 c22 -2 35 -8 35 -17z
m-118 2 c-4 -3 -2 -12 5 -20 10 -12 7 -12 -16 -2 -25 12 -26 14 -9 20 24 10
28 10 20 2z m38 -21 c-3 -3 -11 0 -18 7 -9 10 -8 11 6 5 10 -3 15 -9 12 -12z
m-670 -2 c-13 -21 -159 -32 -182 -13 -16 13 -16 13 4 4 26 -13 36 -14 30 -3
-3 4 19 5 48 4 30 -2 62 1 72 7 23 13 36 14 28 1z m21 -16 c-30 -21 -42 -17
-15 5 13 11 26 17 29 14 3 -2 -4 -11 -14 -19z m316 4 c-7 -7 -12 -8 -12 -2 0
14 12 26 19 19 2 -3 -1 -11 -7 -17z m101 -26 c-10 -7 -31 -20 -46 -28 -27 -15
-28 -15 -21 13 4 15 11 33 15 39 5 6 5 14 1 18 -4 5 10 0 31 -10 35 -17 37
-19 20 -32z m242 10 c-3 -3 -11 0 -18 7 -9 10 -8 11 6 5 10 -3 15 -9 12 -12z
m-788 -8 c-3 -3 -12 -4 -19 -1 -8 3 -5 6 6 6 11 1 17 -2 13 -5z m70 0 c-3 -3
-12 -4 -19 -1 -8 3 -5 6 6 6 11 1 17 -2 13 -5z m324 -10 c71 -36 -19 -78 -137
-64 -24 3 -30 8 -26 22 12 49 105 73 163 42z m429 -4 c0 -5 -2 -10 -4 -10 -3
0 -8 5 -11 10 -3 6 -1 10 4 10 6 0 11 -4 11 -10z m-725 -16 c-15 -12 -38 -15
-89 -12 -63 3 -67 3 -40 -9 24 -10 26 -12 8 -13 -12 0 -32 8 -44 18 -22 18
-22 18 51 15 41 -3 85 0 99 6 35 14 38 13 15 -5z m321 -41 c-15 -13 -32 -23
-39 -23 -7 0 3 9 21 20 20 12 32 28 33 42 1 20 2 21 6 3 4 -12 -4 -27 -21 -42z
m-295 27 c-13 -11 -33 -20 -45 -20 -15 0 -10 6 19 19 51 25 55 25 26 1z m444
1 c-23 -23 -75 -38 -75 -23 0 9 63 40 85 41 5 1 1 -8 -10 -18z m-388 -58 c-2
-16 -4 -5 -4 22 0 28 2 40 4 28 2 -13 2 -35 0 -50z m-134 30 c-7 -2 -21 -2
-30 0 -10 3 -4 5 12 5 17 0 24 -2 18 -5z m397 -12 c0 -28 -151 -56 -187 -33
-6 4 24 7 68 7 61 0 82 4 96 18 20 19 23 21 23 8z m-306 -12 c-22 -36 -133
-50 -184 -24 -41 21 -38 27 5 9 47 -19 103 -18 145 5 44 24 42 23 34 10z m-57
-5 c-3 -3 -12 -4 -19 -1 -8 3 -5 6 6 6 11 1 17 -2 13 -5z m256 -1 c-13 -2 -33
-2 -45 0 -13 2 -3 4 22 4 25 0 35 -2 23 -4z m63 -48 c-11 -8 -29 -15 -40 -14
-15 0 -11 4 14 14 45 17 49 17 26 0z m44 5 c0 -11 -53 -40 -72 -40 -7 1 1 7
18 14 18 8 35 19 38 25 9 14 16 14 16 1z m-350 -15 c-14 -8 -32 -14 -40 -14
-8 0 -1 6 15 14 40 18 57 18 25 0z m-131 -21 c14 -12 -19 -1 -35 12 -18 14
-18 14 6 3 14 -6 27 -13 29 -15z m167 11 c-11 -8 -24 -15 -30 -15 -5 0 -1 7
10 15 10 8 24 14 29 14 6 0 1 -6 -9 -14z m169 5 c8 -13 -5 -13 -25 0 -13 8
-13 10 2 10 9 0 20 -4 23 -10z m-277 -7 c-10 -2 -26 -2 -35 0 -10 3 -2 5 17 5
19 0 27 -2 18 -5z m40 -20 c-15 -2 -42 -2 -60 0 -18 2 -6 4 27 4 33 0 48 -2
33 -4z m117 -2 c-21 -18 -108 -64 -101 -53 4 7 28 23 54 37 51 26 61 30 47 16z
m221 -16 c-11 -8 -27 -15 -35 -15 -9 1 -2 7 14 15 39 18 44 18 21 0z m38 -6
c-11 -19 -71 -39 -114 -39 -38 0 -110 22 -110 34 0 3 16 -2 35 -10 48 -20 114
-18 155 5 42 24 43 24 34 10z m-95 -15 c9 -8 -55 -2 -74 6 -13 6 -5 7 25 3 25
-3 47 -7 49 -9z m-160 -17 c-2 -1 -13 -9 -24 -17 -19 -14 -19 -14 -6 3 7 9 18
17 24 17 6 0 8 -1 6 -3z m-154 -37 c-21 -14 -33 -16 -42 -8 -20 16 -5 28 35
28 l37 0 -30 -20z m370 10 c-3 -5 -12 -10 -18 -10 -7 0 -6 4 3 10 19 12 23 12
15 0z m45 6 c0 -9 -32 -36 -42 -36 -6 0 0 9 13 20 25 21 29 23 29 16z m-320
-21 c-7 -8 -17 -15 -23 -15 -6 0 -2 7 9 15 25 19 30 19 14 0z m190 -4 l-45 -5
55 -7 55 -6 -67 1 c-91 2 -108 21 -20 22 52 0 57 0 22 -5z m-275 -21 c-3 -5
-11 -10 -16 -10 -6 0 -7 5 -4 10 3 6 11 10 16 10 6 0 7 -4 4 -10z m45 0 c0 -5
-7 -10 -15 -10 -8 0 -15 -4 -15 -10 0 -5 -6 -10 -12 -10 -7 1 -2 10 11 20 26
23 31 24 31 10z"/>
<path d="M3626 1754 c-47 -17 -65 -39 -66 -80 0 -61 74 -95 176 -79 59 8 94
41 94 87 0 38 -6 48 -40 71 -30 21 -109 21 -164 1z m159 -14 c3 -6 -1 -7 -9
-4 -18 7 -21 14 -7 14 6 0 13 -4 16 -10z m-25 -15 c38 -20 38 -30 -2 -56 -26
-15 -45 -19 -86 -16 -60 4 -82 19 -66 44 11 18 66 41 102 42 13 1 36 -6 52
-14z m-167 -29 c-13 -68 165 -76 207 -9 7 11 10 12 7 3 -2 -8 -19 -26 -38 -38
-29 -20 -44 -23 -96 -20 -35 2 -59 0 -56 -5 3 -5 -4 -4 -16 2 -25 14 -28 23
-3 14 16 -6 16 -5 0 14 -18 20 -23 45 -11 56 10 11 11 9 6 -17z m211 -51 c-4
-8 -11 -15 -16 -15 -6 0 -5 6 2 15 7 8 14 15 16 15 2 0 1 -7 -2 -15z"/>
<path d="M957 1703 c-28 -45 -50 -243 -27 -243 6 0 10 28 10 63 0 35 7 87 16
116 15 51 15 88 1 64z"/>
<path d="M3078 1498 c-52 -14 -70 -38 -73 -100 -4 -90 20 -117 115 -125 67 -6
124 9 145 40 9 13 15 44 15 83 0 57 -3 64 -31 88 -25 21 -40 26 -82 25 -29 -1
-69 -5 -89 -11z m143 -38 c24 -20 24 -20 4 -35 -36 -28 -87 -38 -134 -25 -35
9 -42 15 -39 32 6 44 128 63 169 28z m-178 -5 c-3 -9 -8 -14 -10 -11 -3 3 -2
9 2 15 9 16 15 13 8 -4z m62 -71 c22 -4 52 -1 80 8 25 9 45 13 45 11 0 -10
-72 -33 -102 -33 -35 0 -98 32 -98 50 0 5 9 1 19 -9 11 -11 36 -23 56 -27z
m149 5 c-12 -20 -72 -39 -116 -38 -41 2 -40 2 13 9 31 4 67 14 80 24 28 19 33
20 23 5z m-175 -25 c14 -12 -19 -1 -35 12 -18 14 -18 14 6 3 14 -6 27 -13 29
-15z m141 -34 c-8 -5 -22 -9 -30 -9 -10 0 -8 3 5 9 27 12 43 12 25 0z m-80
-30 c28 0 65 7 83 16 31 16 32 16 14 -2 -14 -15 -33 -19 -97 -19 -64 0 -83 4
-97 19 -18 18 -17 18 14 2 18 -9 55 -16 83 -16z m13 13 c-13 -2 -33 -2 -45 0
-13 2 -3 4 22 4 25 0 35 -2 23 -4z"/>
<path d="M1635 1429 c3 -12 7 -24 11 -28 4 -3 4 2 1 12 -8 21 3 22 29 2 22
-16 34 -19 34 -7 0 7 -62 42 -75 42 -2 0 -2 -10 0 -21z"/>
<path d="M1060 1406 c0 -18 17 -29 30 -21 8 5 7 11 -1 21 -15 18 -29 18 -29 0z"/>
<path d="M1752 1389 c-8 -12 -19 -18 -29 -15 -8 3 -27 8 -41 11 -19 4 -17 1 8
-8 23 -9 41 -25 52 -49 11 -22 36 -47 70 -68 29 -19 62 -41 73 -51 20 -17 168
-104 275 -162 84 -45 150 -88 150 -97 0 -15 225 -161 261 -170 19 -5 53 -16
76 -24 70 -26 123 4 123 69 0 36 -31 64 -187 168 -134 90 -192 119 -258 131
-50 10 -92 31 -218 113 -56 36 -121 72 -145 79 -24 8 -69 29 -100 48 -78 47
-95 50 -110 25z m26 -40 c-18 -24 -24 -27 -26 -14 -4 19 15 45 35 45 10 0 7
-8 -9 -31z m175 -71 c-11 -13 -24 -33 -28 -45 -9 -31 -25 -29 -25 4 0 32 26
63 53 63 20 0 20 0 0 -22z m397 -174 c0 -3 -13 -16 -29 -30 -16 -13 -32 -36
-35 -51 -6 -23 -9 -24 -22 -11 -19 19 -5 59 28 82 22 15 58 22 58 10z m30
-180 c22 -15 40 -29 40 -31 0 -5 -27 11 -75 44 -11 7 -16 13 -12 13 4 0 25
-12 47 -26z m280 -30 c-14 -10 -31 -24 -37 -32 -7 -9 -13 -11 -13 -5 0 13 48
53 64 53 6 0 -1 -7 -14 -16z m-85 -92 c-4 -5 -75 37 -75 44 0 3 18 -5 40 -17
22 -12 38 -25 35 -27z"/>
<path d="M1970 950 c-51 -41 -350 -216 -448 -262 -77 -36 -83 -40 -80 -66 2
-20 17 -36 58 -63 91 -60 236 -139 256 -139 9 0 69 33 132 73 162 103 264 161
370 212 92 44 93 45 90 77 -3 30 -10 36 -83 73 -45 22 -94 50 -110 61 -44 32
-112 64 -132 64 -10 -1 -34 -14 -53 -30z m88 1 c18 -11 -43 -40 -70 -33 -20 5
-20 6 3 23 26 20 47 23 67 10z m68 -32 c19 -11 34 -23 34 -25 0 -5 -44 17 -70
35 -28 20 3 11 36 -10z m-256 -64 c0 -2 -10 -9 -22 -15 -22 -11 -22 -10 -4 4
21 17 26 19 26 11z m415 -27 c14 -6 25 -14 25 -17 0 -7 -57 -40 -90 -52 -22
-8 -23 -8 -7 5 9 7 17 19 17 25 0 14 18 51 25 51 2 0 16 -5 30 -12z m-397 -44
c84 -39 172 -92 172 -103 0 -5 -15 -16 -32 -25 l-33 -17 -99 55 c-54 30 -111
60 -127 67 -16 6 -29 14 -29 18 0 7 50 39 63 40 4 1 43 -15 85 -35z m442 -13
c0 -10 -40 -38 -63 -43 -26 -5 -15 16 18 34 35 19 45 22 45 9z m-688 -47 c-42
-24 -62 -41 -58 -50 3 -7 -1 -20 -9 -28 -8 -8 -15 -17 -15 -20 0 -3 29 -24 65
-47 36 -22 65 -43 65 -45 0 -6 -99 44 -130 66 -14 9 -42 23 -63 30 l-38 12
113 58 c126 65 168 79 70 24z m438 -74 c0 -12 -13 -28 -32 -40 -58 -35 -60 3
-2 40 16 10 30 19 32 19 1 1 2 -8 2 -19z m-120 -24 c0 -3 -25 -18 -55 -34 -30
-17 -55 -27 -55 -24 0 4 21 19 48 33 47 27 62 33 62 25z m20 -38 c0 -7 -18
-23 -40 -36 -29 -17 -38 -18 -34 -7 4 8 12 15 18 15 7 0 21 9 32 19 23 24 24
24 24 9z m-181 -58 c-28 -19 -53 -28 -63 -24 -27 10 1 34 40 34 18 0 36 5 39
10 3 6 12 10 18 10 7 0 -9 -14 -34 -30z m26 -49 c-33 -22 -62 -37 -65 -35 -3
3 2 10 10 14 8 5 33 20 55 34 65 39 65 29 0 -13z"/>
</g>
</svg>
